<?xml version="1.0" encoding="UTF-8"?>
<svg version="1.1" xmlns="http://www.w3.org/2000/svg" width="344" height="344">
<path d="M0 0 C1 1 1 1 1.1875 3.9375 C1 7 1 7 -1 9 C-5.87679982 8.89162667 -9.79761658 7.36206438 -14.3125 5.5625 C-34.72873284 -2.4971505 -57.89103582 -1.62415944 -78 7 C-100.15695235 16.96334377 -116.23795401 33.74189676 -125.05224609 56.4699707 C-134.18952329 81.1610805 -132.31096342 106.41269831 -121.51953125 130.2734375 C-118.33076235 136.37740799 -114.42332936 141.73906147 -110 147 C-109.39414063 147.75152344 -108.78828125 148.50304687 -108.1640625 149.27734375 C-93.96529993 166.22892764 -71.93750803 175.48826649 -50.29199219 177.61669922 C-26.6814882 179.42099537 -4.93351248 171.10357877 13 156 C14.010625 155.2575 15.02125 154.515 16.0625 153.75 C32.53224827 139.83911092 40.80758349 116.81475873 42.75 96 C43.78386052 76.98845377 39.6306747 59.59629309 30.2578125 43.0859375 C28.80793165 39.5287764 29.02152459 37.66103719 30 34 C32.97 33.505 32.97 33.505 36 33 C51.66430082 50.38626297 54.12459892 77.78614817 53 100 C50.50845692 125.58987532 37.22803312 149.23494638 18 166 C-4.19097421 183.38054368 -29.22622338 190.34101437 -57.22558594 187.79785156 C-81.83619188 184.58987784 -104.13476351 170.77172731 -120 152 C-127.49386079 142.25579617 -133.3494951 131.76109053 -137 120 C-137.20737793 119.34547852 -137.41475586 118.69095703 -137.62841797 118.01660156 C-145.57892026 91.75794656 -141.733234 63.1393595 -128.99414062 39.10205078 C-124.65846219 31.60548103 -118.961155 25.22837919 -113 19 C-112.31421875 18.23945312 -111.6284375 17.47890625 -110.921875 16.6953125 C-82.97854253 -13.21440262 -35.55114629 -17.85799466 0 0 Z " fill="#FDFDFD" transform="translate(210,83)"/>
<path d="M0 0 C0.75055696 -0.00367669 1.50111391 -0.00735338 2.27441502 -0.01114148 C4.78516389 -0.02213934 7.29587131 -0.02601556 9.80664062 -0.02983093 C11.60892365 -0.03609867 13.41120538 -0.04274575 15.21348572 -0.04974365 C21.12994492 -0.0707546 27.04640429 -0.08114525 32.96289062 -0.09111023 C35.00350966 -0.0951593 37.04412855 -0.09927626 39.08474731 -0.10346031 C48.67584642 -0.12250774 58.26693787 -0.13673809 67.85805225 -0.14507228 C78.90884169 -0.15483464 89.95943029 -0.18112994 101.010149 -0.22157317 C109.56409939 -0.2517981 118.11799243 -0.26654731 126.67199516 -0.26985329 C131.77474767 -0.27219704 136.87728552 -0.281069 141.97998047 -0.30631447 C146.78665448 -0.32971111 151.59297428 -0.3337821 156.39969063 -0.32355309 C158.15515895 -0.32306038 159.9106454 -0.32930183 161.66605949 -0.34310913 C180.95881114 -0.48625519 196.69740168 4.43664294 210.73242188 18.22920227 C220.4841822 28.65061138 226.61372835 42.4587128 226.61006165 56.75384521 C226.61373833 57.52396551 226.61741502 58.2940858 226.62120312 59.08754307 C226.63222399 61.67049547 226.63608116 64.25340762 226.63989258 66.83638 C226.64615865 68.68777595 226.65280558 70.53917065 226.6598053 72.39056396 C226.68083851 78.47478867 226.69120991 84.5590136 226.70117188 90.64326477 C226.7052203 92.74053015 226.70933725 94.83779539 226.71352196 96.9350605 C226.73257535 106.79313109 226.74680368 116.65119421 226.75513393 126.50927967 C226.76489444 137.87136949 226.79118238 149.23326388 226.83163482 160.59528488 C226.8618564 169.38700503 226.8766087 178.17866938 226.87991494 186.97044045 C226.88225935 192.21628719 226.89113983 197.46192519 226.91637611 202.70771599 C226.93976638 207.64980193 226.94384623 212.59154334 226.93361473 217.53367043 C226.93312185 219.33912684 226.93936861 221.14460085 226.95317078 222.95000458 C227.09353612 242.41340087 222.31606076 258.23653251 208.38085938 272.41670227 C198.0214752 282.1104232 184.23265167 288.29807141 170.0080719 288.29434204 C169.25428582 288.29801873 168.50049973 288.30169542 167.72387165 288.30548352 C165.19619723 288.31650265 162.66856396 288.32036126 160.14086914 288.32417297 C158.32888153 288.33043918 156.5168952 288.33708612 154.70491028 288.34408569 C148.75054823 288.36511753 142.79618596 288.37549029 136.84179688 288.38545227 C134.7891075 288.38950077 132.73641827 288.39361772 130.68372917 288.39780235 C121.03496154 288.41685557 111.38620154 288.43108385 101.73741871 288.43941432 C90.61756914 288.44917428 79.49791928 288.47546082 68.37814003 288.51591522 C59.77325482 288.54614008 51.16842662 288.56088941 42.56348938 288.56419533 C37.42942341 288.56653941 32.29557075 288.57541535 27.16156197 288.60065651 C22.32453315 288.62405251 17.48785633 288.62812438 12.65078545 288.61789513 C10.88403015 288.61740238 9.11725684 288.62364509 7.35055542 288.63745117 C-11.98769084 288.78000537 -27.71073807 283.88029006 -41.80273438 270.08076477 C-51.88648849 259.64678398 -57.86791044 245.52848487 -57.80453491 231.05947876 C-57.80906603 230.28594077 -57.81359714 229.51240278 -57.81826556 228.71542424 C-57.83084187 226.14484081 -57.82929359 223.5744711 -57.82763672 221.00386047 C-57.83362628 219.15187307 -57.84043281 217.29988816 -57.84799194 215.44790649 C-57.86561748 210.431125 -57.87034592 205.41441179 -57.87162352 200.39760232 C-57.87304784 197.25831857 -57.87732282 194.11905203 -57.88261795 190.97977257 C-57.90110818 180.01350686 -57.90928999 169.04728969 -57.90771484 158.08100891 C-57.90651434 147.88247168 -57.92760144 137.68414639 -57.95920217 127.48566276 C-57.98541603 118.71083853 -57.99607997 109.9360833 -57.99480402 101.16122025 C-57.99429581 95.9288593 -57.99990069 90.69668672 -58.02116013 85.46436501 C-58.04062826 80.53862506 -58.04060866 75.61325151 -58.02612686 70.68749809 C-58.02404813 68.88849472 -58.02868327 67.0894679 -58.04084778 65.29050446 C-58.1636825 45.85251919 -53.36998231 30.03715553 -39.45507812 15.87763977 C-28.6876295 5.80207539 -14.72620099 -0.0038986 0 0 Z M-34.53710938 18.14717102 C-35.47490234 18.8954718 -35.47490234 18.8954718 -36.43164062 19.65888977 C-47.25357305 29.35710009 -52.50037317 44.01511794 -53.53710938 58.14717102 C-53.6879333 63.71790406 -53.68435365 69.28687273 -53.68237305 74.85932922 C-53.68536914 76.5455991 -53.6887727 78.23186829 -53.69255066 79.9181366 C-53.70134865 84.47818499 -53.70372699 89.03821459 -53.70436645 93.59827065 C-53.70507929 96.45261277 -53.70721803 99.30695018 -53.70986366 102.16129112 C-53.7191029 112.13437069 -53.7232003 122.10743693 -53.72241211 132.08052063 C-53.72181157 141.3525657 -53.73236236 150.62455255 -53.74815577 159.8965829 C-53.761263 167.87820498 -53.76659468 175.8598081 -53.7659567 183.84144086 C-53.76570267 188.59918245 -53.76850145 193.35687224 -53.77913475 198.11460304 C-53.78886956 202.59212423 -53.78885828 207.06954465 -53.78161812 211.54706955 C-53.78057897 213.18200898 -53.78289496 214.81695487 -53.78897858 216.45188332 C-53.85319073 234.91725696 -51.3900694 250.35033857 -39.53710938 265.14717102 C-38.78880859 266.08496399 -38.78880859 266.08496399 -38.02539062 267.04170227 C-28.32253395 277.86881941 -13.67221253 283.09988442 0.46289062 284.14717102 C5.87526229 284.29720434 11.28626686 284.29442022 16.70019531 284.29243469 C18.33558224 284.29543103 19.97096845 284.29883465 21.60635376 284.3026123 C26.02804408 284.31140849 30.44971501 284.31378858 34.87141323 284.31442809 C37.63999823 284.31514112 40.40857838 284.31728022 43.17716217 284.31992531 C52.85313731 284.32916445 62.52909872 284.33326202 72.20507812 284.33247375 C81.19649368 284.33187345 90.18784916 284.34241972 99.17924953 284.35821742 C106.92224811 284.37133248 114.66522715 284.37665599 122.40823674 284.37601835 C127.0223701 284.37576451 131.63645001 284.37855206 136.2505722 284.3891964 C140.59431102 284.39894431 144.93794602 284.39891113 149.28168869 284.39167976 C150.86621886 284.39064217 152.45075572 284.39294711 154.03527451 284.39904022 C172.70398362 284.46611855 188.49478216 282.13733121 203.46289062 270.14717102 C204.08808594 269.64830383 204.71328125 269.14943665 205.35742188 268.63545227 C216.18052158 258.93619588 221.42377799 244.27991184 222.46289062 230.14717102 C222.61353935 224.61242767 222.61013585 219.07895998 222.6081543 213.54267883 C222.61115046 211.86788356 222.61455404 210.19308898 222.61833191 208.51829529 C222.62712984 203.98917047 222.62950825 199.46006458 222.6301477 194.93093204 C222.63086062 192.0953432 222.63299953 189.25975911 222.63564491 186.42417145 C222.64488462 176.5147776 222.64898155 166.60539716 222.64819336 156.69599915 C222.64759303 147.48645788 222.6581396 138.27697528 222.67393702 129.06744885 C222.68705038 121.13761537 222.69237566 113.20780096 222.69173795 105.27795672 C222.69148407 100.55204117 222.69427437 95.8261778 222.704916 91.10027313 C222.71466102 86.65147579 222.71463267 82.20277983 222.70739937 77.75397873 C222.70636142 76.13074723 222.70866887 74.50750919 222.71475983 72.88428879 C222.78062477 54.09956219 220.53569883 38.21845446 208.46289062 23.14717102 C207.96402344 22.52197571 207.46515625 21.8967804 206.95117188 21.25263977 C197.2483152 10.42552263 182.59799378 5.19445762 168.46289062 4.14717102 C163.05051896 3.9971377 157.63951439 3.99992182 152.22558594 4.00190735 C150.59019901 3.99891101 148.9548128 3.99550739 147.31942749 3.99172974 C142.89773717 3.98293355 138.47606624 3.98055347 134.05436802 3.97991395 C131.28578302 3.97920092 128.51720287 3.97706182 125.74861908 3.97441673 C116.07264394 3.96517759 106.39668253 3.96108002 96.72070312 3.96186829 C87.72928757 3.96246859 78.73793209 3.95192232 69.74653172 3.93612462 C62.00353314 3.92300956 54.2605541 3.91768605 46.51754451 3.9183237 C41.90341115 3.91857753 37.28933124 3.91578998 32.67520905 3.90514565 C28.33147023 3.89539773 23.98783523 3.89543091 19.64409256 3.90266228 C18.05956239 3.90369987 16.47502553 3.90139493 14.89050674 3.89530182 C-3.77820237 3.82822349 -19.56900091 6.15701083 -34.53710938 18.14717102 Z " fill="#F5F6F8" transform="translate(81.537109375,27.852828979492188)"/>
<path d="M0 0 C2.4375 0.8125 2.4375 0.8125 5 2 C6.28317892 5.84953676 6.06643637 8.94738135 6 13 C6.56847656 12.96519531 7.13695312 12.93039063 7.72265625 12.89453125 C14.57738615 12.65421518 19.35569046 13.77637607 24.75 18.3125 C27.92882184 22.10942608 29.79164976 25.22902296 30.375 30.1875 C30 33 30 33 28.8125 34.9375 C27 36 27 36 24.5625 36.25 C20.88838486 34.45774871 20.34571205 31.86008234 18.9921875 28.12890625 C18.07186559 25.67246714 18.07186559 25.67246714 15 24 C11.94556175 23.69015808 11.94556175 23.69015808 8.46875 23.734375 C7.18355469 23.73179687 5.89835937 23.72921875 4.57421875 23.7265625 C3.90567871 23.73075195 3.23713867 23.73494141 2.54833984 23.73925781 C0.50718453 23.74996232 -1.53309075 23.73935337 -3.57421875 23.7265625 C-4.85941406 23.72914063 -6.14460938 23.73171875 -7.46875 23.734375 C-9.23895508 23.73775879 -9.23895508 23.73775879 -11.04492188 23.74121094 C-14.18727004 23.77818231 -14.18727004 23.77818231 -17 26 C-18.27327177 29.81981532 -18.20150502 33.44667409 -18.23828125 37.4296875 C-18.246353 38.257034 -18.25442474 39.08438049 -18.26274109 39.9367981 C-18.27656427 41.68684809 -18.28729432 43.43692484 -18.29516602 45.18701172 C-18.3123921 47.85826781 -18.35629394 50.52829003 -18.40039062 53.19921875 C-18.41051701 54.90103258 -18.41903328 56.60285692 -18.42578125 58.3046875 C-18.44328934 59.10067352 -18.46079742 59.89665955 -18.47883606 60.71676636 C-18.46413579 64.48899317 -18.2020886 66.62369288 -16.38549805 70.00634766 C-13.24978384 72.62698446 -11.46314227 72.61836435 -7.40625 72.59375 C-6.12878906 72.59117187 -4.85132813 72.58859375 -3.53515625 72.5859375 C-2.87273926 72.57143555 -2.21032227 72.55693359 -1.52783203 72.54199219 C0.49415479 72.50012104 2.5128088 72.5009254 4.53515625 72.5078125 C12.45341301 72.79015214 12.45341301 72.79015214 19 69 C20.06445523 67.01837909 20.06445523 67.01837909 20.6875 64.875 C21.9373297 61.0626703 21.9373297 61.0626703 23 60 C25.4375 59.75 25.4375 59.75 28 60 C30.48757543 63.73136314 30.20181296 65.36292837 29.6015625 69.6484375 C28.31538839 74.67620904 25.51065477 77.85779761 21.4375 80.9375 C16.31299929 82.52143658 11.32088498 82.23246585 6 82 C6.02320313 82.60328125 6.04640625 83.2065625 6.0703125 83.828125 C6.08835938 84.62734375 6.10640625 85.4265625 6.125 86.25 C6.14820313 87.03890625 6.17140625 87.8278125 6.1953125 88.640625 C5.9828378 91.20731941 5.28654105 92.7916067 4 95 C1.125 95.125 1.125 95.125 -2 95 C-4 93 -4 93 -4.1953125 90.3984375 C-4.17210937 89.40070313 -4.14890625 88.40296875 -4.125 87.375 C-4.10695312 86.37210937 -4.08890625 85.36921875 -4.0703125 84.3359375 C-4.04710937 83.56507813 -4.02390625 82.79421875 -4 82 C-4.86882812 82.04640625 -5.73765625 82.0928125 -6.6328125 82.140625 C-15.98818624 82.43363447 -15.98818624 82.43363447 -20.5 80.5 C-25.90074153 75.09925847 -28.55652155 70.26790332 -28.66908264 62.56468201 C-28.65582443 61.66548538 -28.64256622 60.76628876 -28.62890625 59.83984375 C-28.63131821 58.89113907 -28.63373016 57.94243439 -28.63621521 56.96498108 C-28.63524083 54.97067053 -28.62194559 52.97633155 -28.59692383 50.98217773 C-28.56255378 47.9422564 -28.57630251 44.905237 -28.59570312 41.86523438 C-28.58880524 39.91925855 -28.57913337 37.97329018 -28.56640625 36.02734375 C-28.57136612 35.12612289 -28.57632599 34.22490204 -28.58143616 33.29637146 C-28.45022461 26.21591248 -26.82306874 21.74877746 -21.625 16.6875 C-15.83380152 12.96458669 -10.68029857 12.73278806 -4 13 C-4.04640625 12.39671875 -4.0928125 11.7934375 -4.140625 11.171875 C-4.43910806 4.5626072 -4.43910806 4.5626072 -2 1.4375 C-1.34 0.963125 -0.68 0.48875 0 0 Z " fill="#FDFDFD" transform="translate(165,124)"/>
<path d="M0 0 C3.0625 0.25 3.0625 0.25 6 1 C9.83037153 8.66074305 6.15195377 20.29099293 4 28 C-2.64564133 47.76652292 -16.28796768 63.79516848 -34.8125 73.3125 C-41.67914172 76.68828366 -48.40525914 78.85650075 -56 80 C-57.09957031 80.1753125 -58.19914063 80.350625 -59.33203125 80.53125 C-65.34661662 81.28761866 -65.34661662 81.28761866 -68 81 C-70.34765625 79.171875 -70.34765625 79.171875 -72 77 C-71.875 74.3125 -71.875 74.3125 -71 72 C-68.33586534 70.66793267 -65.65194374 70.49573359 -62.72827148 70.10058594 C-49.0623689 68.21490936 -37.96830326 64.63047663 -27 56 C-26.38769531 55.56300781 -25.77539062 55.12601563 -25.14453125 54.67578125 C-13.92018902 46.12267836 -6.29292737 30.64405297 -4 17 C-3.48842843 13.06703781 -3.00134965 9.13712277 -2.5625 5.1953125 C-2 2 -2 2 0 0 Z " fill="#FDFDFD" transform="translate(233,167)"/>
<path d="M0 0 C0.75972931 -0.00085442 1.51945862 -0.00170885 2.30221003 -0.00258917 C4.84331775 -0.00423391 7.3843592 0.00126094 9.92546082 0.00672913 C11.74883523 0.00701124 13.57220976 0.00685279 15.39558411 0.00628662 C20.34348728 0.00599959 25.29136623 0.01188108 30.23926377 0.01886058 C35.41092192 0.02510983 40.58258061 0.02569916 45.75424194 0.02688599 C55.54659575 0.02999466 65.33893839 0.03820181 75.13128728 0.04823548 C86.27991995 0.05941099 97.42855316 0.06491069 108.57719004 0.06993091 C131.50993688 0.0803848 154.44267381 0.09797528 177.37541199 0.12025452 C176.38541199 1.11025452 175.39541199 2.10025452 174.37541199 3.12025452 C176.35541199 3.78025452 178.33541199 4.44025452 180.37541199 5.12025452 C177.00638406 6.24326383 174.73378882 5.82078086 171.27033234 5.38762474 C164.91825153 4.80095669 158.51308467 4.97265286 152.1381073 4.97499084 C150.50272038 4.97199451 148.86733416 4.96859089 147.23194885 4.96481323 C142.81025854 4.95601705 138.3885876 4.95363696 133.96688938 4.95299745 C131.19830438 4.95228442 128.42972423 4.95014532 125.66114044 4.94750023 C115.9851653 4.93826108 106.30920389 4.93416352 96.63322449 4.93495178 C87.64180893 4.93555209 78.65045345 4.92500582 69.65905309 4.90920812 C61.9160545 4.89609306 54.17307546 4.89076955 46.43006587 4.89140719 C41.81593252 4.89166103 37.20185261 4.88887347 32.58773041 4.87822914 C28.2439916 4.86848122 23.90035659 4.86851441 19.55661392 4.87574577 C17.97208376 4.87678337 16.3875469 4.87447843 14.80302811 4.86838531 C2.94820789 4.8257899 -8.85103107 5.11591206 -19.93708801 9.74525452 C-21.02634583 10.19127014 -22.11560364 10.63728577 -23.23786926 11.09681702 C-24.02548645 11.43455139 -24.81310364 11.77228577 -25.62458801 12.12025452 C-25.62458801 11.46025452 -25.62458801 10.80025452 -25.62458801 10.12025452 C-24.17052551 9.43962952 -24.17052551 9.43962952 -22.68708801 8.74525452 C-19.5537922 7.4623923 -19.5537922 7.4623923 -18.62458801 5.12025452 C-20.27458801 5.45025452 -21.92458801 5.78025452 -23.62458801 6.12025452 C-21.45565567 3.95132217 -20.18532113 3.48008649 -17.31208801 2.55775452 C-16.5528302 2.30896545 -15.79357239 2.06017639 -15.01130676 1.80384827 C-9.9633257 0.35802718 -5.23607821 -0.02162584 0 0 Z " fill="#F8F9FB" transform="translate(81.62458801269531,27.879745483398438)"/>
<path d="M0 0 C2 2 2 2 2.1171875 4.359375 C0.36922863 8.49091415 -2.94309673 9.4229834 -6.875 11.25 C-22.78684982 19.19762365 -33.616385 30.05153282 -40.41796875 46.69921875 C-42 49 -42 49 -45.05078125 49.95703125 C-46.02402344 49.97121094 -46.99726562 49.98539063 -48 50 C-50 48 -50 48 -50.33203125 45.3203125 C-49.93310573 41.33105725 -48.58564954 38.33569469 -46.6875 34.875 C-46.33429688 34.22337891 -45.98109375 33.57175781 -45.6171875 32.90039062 C-41.69493686 25.99264679 -36.65032518 20.5247624 -31 15 C-30.36707031 14.33484375 -29.73414062 13.6696875 -29.08203125 12.984375 C-22.88603614 6.91147913 -14.75891207 3.63976424 -7 0 C-4.29393021 -1.35303489 -2.8671629 -0.7884698 0 0 Z " fill="#FDFDFD" transform="translate(147,101)"/>
<path d="M0 0 C2.5 -0.3125 2.5 -0.3125 5 0 C7 2 7 2 7.1953125 4.1640625 C7.17210937 4.97617188 7.14890625 5.78828125 7.125 6.625 C7.10695312 7.44226563 7.08890625 8.25953125 7.0703125 9.1015625 C7.04710937 9.72804688 7.02390625 10.35453125 7 11 C7.62648437 10.96519531 8.25296875 10.93039063 8.8984375 10.89453125 C10.12433594 10.85392578 10.12433594 10.85392578 11.375 10.8125 C12.18710938 10.77769531 12.99921875 10.74289063 13.8359375 10.70703125 C14.55007812 10.80371094 15.26421875 10.90039062 16 11 C18 14 18 14 17.6875 16.625 C17 19 17 19 16 20 C14.48071962 20.07179964 12.95832518 20.08392007 11.4375 20.0625 C10.61121094 20.05347656 9.78492188 20.04445313 8.93359375 20.03515625 C7.97646484 20.01775391 7.97646484 20.01775391 7 20 C7.02320313 20.62648438 7.04640625 21.25296875 7.0703125 21.8984375 C7.09738281 23.12433594 7.09738281 23.12433594 7.125 24.375 C7.14820313 25.18710938 7.17140625 25.99921875 7.1953125 26.8359375 C7 29 7 29 5 31 C2.5 31.25 2.5 31.25 0 31 C-2 29 -2 29 -2.1953125 26.8359375 C-2.17210937 26.02382812 -2.14890625 25.21171875 -2.125 24.375 C-2.10695312 23.55773437 -2.08890625 22.74046875 -2.0703125 21.8984375 C-2.04710937 21.27195312 -2.02390625 20.64546875 -2 20 C-3.258125 20.061875 -4.51625 20.12375 -5.8125 20.1875 C-8.48703401 20.17801584 -9.71452998 20.16436153 -12.0625 18.8125 C-13 17 -13 17 -12.8125 14.375 C-12 12 -12 12 -10 11 C-7.3276379 10.86584528 -4.67749512 10.95681459 -2 11 C-2.061875 9.1128125 -2.061875 9.1128125 -2.125 7.1875 C-2.2390374 3.70935927 -2.05925681 3.08888522 0 0 Z " fill="#FDFDFD" transform="translate(226,86)"/>
<path d="M0 0 C0.33 0 0.66 0 1 0 C1.76447727 22.2532013 2.18373329 44.51978534 2.32823563 66.78555393 C2.35104322 70.28906099 2.3818855 73.79199631 2.43432617 77.29519653 C2.49325619 81.28286778 2.50982904 85.26972731 2.5234375 89.2578125 C2.54606659 90.43682632 2.56869568 91.61584015 2.5920105 92.83058167 C2.57001687 101.69484024 0.37639164 108.8486379 -3 117 C-3.52722153 118.36658249 -3.52722153 118.36658249 -4.06509399 119.76077271 C-6.55134503 125.71568278 -12.00473744 132.02940668 -17 136 C-20.3125 136.3125 -20.3125 136.3125 -23 136 C-23.33 136.99 -23.66 137.98 -24 139 C-26.51171875 140.5703125 -26.51171875 140.5703125 -29.6875 142.125 C-30.72261719 142.64320313 -31.75773437 143.16140625 -32.82421875 143.6953125 C-35.92833294 144.97055744 -38.68053782 145.5919102 -42 146 C-42.33 145.34 -42.66 144.68 -43 144 C-41.82630859 143.72736328 -41.82630859 143.72736328 -40.62890625 143.44921875 C-39.11103516 143.07216797 -39.11103516 143.07216797 -37.5625 142.6875 C-36.55316406 142.44386719 -35.54382813 142.20023438 -34.50390625 141.94921875 C-33.67761719 141.63597656 -32.85132813 141.32273437 -32 141 C-31.67 140.01 -31.34 139.02 -31 138 C-28.7421875 136.421875 -28.7421875 136.421875 -25.875 134.75 C-13.88991654 127.2805867 -6.28419529 116.23013015 -2.47265625 102.57421875 C-1.19592702 95.62079264 -0.84429222 88.68108131 -0.79467773 81.62475586 C-0.78477814 80.7358667 -0.77487854 79.84697754 -0.76467896 78.93115234 C-0.73337353 76.0257422 -0.70843047 73.12031576 -0.68359375 70.21484375 C-0.66299741 68.18746035 -0.64200027 66.16008098 -0.62062073 64.13270569 C-0.5656767 58.82112923 -0.51614648 53.5095158 -0.46777344 48.19787598 C-0.41735518 42.76795194 -0.36177567 37.33808095 -0.30664062 31.90820312 C-0.19939796 21.27218083 -0.09787907 10.6361123 0 0 Z " fill="#ECEEF1" transform="translate(304,167)"/>
<path d="M0 0 C2.8935685 2.8935685 2.2571004 4.97036304 2.26742554 9.02449036 C2.27195665 9.75614983 2.27648776 10.4878093 2.28115618 11.24164027 C2.29386998 13.70648553 2.29217529 16.1711118 2.29052734 18.63598633 C2.29650874 20.39842007 2.30331338 22.16085117 2.31088257 23.92327881 C2.32860147 28.72348086 2.33324076 33.52361166 2.33451414 38.32384324 C2.33593436 41.32540203 2.34020177 44.32694265 2.34550858 47.32849693 C2.36403681 57.80844651 2.37217676 68.28834513 2.37060547 78.76831055 C2.36940721 88.5202497 2.39044024 98.27196638 2.4220928 108.02384931 C2.44831725 116.40365186 2.45897 124.78338212 2.45769465 133.16322535 C2.4571863 138.16428885 2.46279715 143.16515528 2.48405075 148.16617775 C2.50353403 152.88008324 2.50348912 157.59360599 2.48901749 162.30752563 C2.48693989 164.02912142 2.49156702 165.75074175 2.5037384 167.47229576 C2.58077627 179.13335683 1.5605198 189.45160176 -4 200 C-4.66 199.67 -5.32 199.34 -6 199 C-5.47006927 197.91515808 -5.47006927 197.91515808 -4.92943287 196.80840015 C-0.54610814 186.86530929 -0.28319177 178.15819908 -0.34057617 167.44995117 C-0.33210718 165.61553362 -0.32145588 163.78112506 -0.30880737 161.94673157 C-0.28083603 157.00538304 -0.28310147 152.06447121 -0.29110122 147.12306762 C-0.29424097 141.94471799 -0.26914909 136.7665039 -0.24714661 131.58821106 C-0.20979616 121.79964575 -0.19756395 112.01121935 -0.1945222 102.22258979 C-0.18982159 91.07128518 -0.15686614 79.92011887 -0.12162435 68.76887548 C-0.0498084 45.84593371 -0.01319204 22.92304523 0 0 Z " fill="#FBFCFD" transform="translate(306,84)"/>
<path d="M0 0 C-0.33 0.99 -0.66 1.98 -1 3 C-1.969375 3.309375 -2.93875 3.61875 -3.9375 3.9375 C-7.62077083 5.21536947 -7.38393579 5.72534358 -9 9 C-10.69921875 10.421875 -10.69921875 10.421875 -12.6875 11.75 C-22.38291679 18.82030394 -28.23358069 28.70074207 -32 40 C-32.66 40 -33.32 40 -34 40 C-34 40.99 -34 41.98 -34 43 C-35.485 43.495 -35.485 43.495 -37 44 C-34.62476729 28.37346904 -28.93108937 17.2151672 -16.4453125 6.88671875 C-11.35778842 3.15225958 -6.50984527 0 0 0 Z " fill="#EAECEF" transform="translate(63,33)"/>
<path d="M0 0 C2 2 2 2 2.2063303 3.9016428 C2.1858208 4.68293017 2.1653113 5.46421755 2.1441803 6.2691803 C2.12580423 7.16797724 2.10742817 8.06677418 2.08849525 8.99280739 C2.05808332 9.98397245 2.02767139 10.97513752 1.99633789 11.99633789 C1.97282446 13.04076742 1.94931103 14.08519695 1.92508507 15.16127586 C1.87284121 17.44924146 1.81613697 19.73710837 1.75561333 22.02486992 C1.59100633 28.29358877 1.46187153 34.56306921 1.32861328 40.83251953 C1.29948143 42.1655741 1.27034826 43.49862864 1.2412138 44.83168316 C0.92741006 59.4268382 0.79760366 74.02314634 0.68359375 88.62109375 C0.67298542 89.92887409 0.66237709 91.23665443 0.6514473 92.58406448 C0.58705705 100.52401773 0.52662876 108.46399572 0.46777344 116.4039917 C0.42159512 122.59558186 0.37210017 128.78714603 0.32291877 134.97871292 C0.21172648 148.98578207 0.10440751 162.99287869 0 177 C-0.33 177 -0.66 177 -1 177 C-1.17716595 154.36511 -1.3428463 131.73016204 -1.49477577 109.09508801 C-1.56558506 98.58572346 -1.64018205 88.07641107 -1.72363281 77.56713867 C-1.79634139 68.4094688 -1.86200757 59.25178045 -1.91914403 50.09399968 C-1.94965766 45.24303583 -1.98374711 40.39215548 -2.02626419 35.54128075 C-2.06614414 30.97860502 -2.09663134 26.4159644 -2.11981392 21.85317421 C-2.13001085 20.17573689 -2.14368383 18.49831668 -2.16103554 16.82093811 C-2.1841592 14.53606031 -2.19493596 12.25145077 -2.20254517 9.96647644 C-2.2117631 8.68610599 -2.22098103 7.40573553 -2.23047829 6.08656597 C-2 3 -2 3 0 0 Z " fill="#ECECF1" transform="translate(26,79)"/>
<path d="M0 0 C2.15419559 2.15419559 2.57703928 3.30035853 3.48046875 6.1484375 C3.75366943 6.98342773 4.02687012 7.81841797 4.30834961 8.67871094 C4.59846924 9.56848633 4.88858887 10.45826172 5.1875 11.375 C9.34062574 23.60044429 14.23362473 33.24393941 24 42 C24.66 42.66 25.32 43.32 26 44 C23.525 44.495 23.525 44.495 21 45 C20.67 44.34 20.34 43.68 20 43 C18.79261476 42.09518147 17.5590611 41.22503595 16.3125 40.375 C8.26020361 34.40767321 2.65480317 25.4344466 0.46875 15.61328125 C-0.18195827 10.43472795 -0.08270705 5.210544 0 0 Z " fill="#EBECEF" transform="translate(25,257)"/>
<path d="M0 0 C1 3 1 3 -0.4375 6.1875 C-1.2109375 7.5796875 -1.2109375 7.5796875 -2 9 C-0.68 8.67 0.64 8.34 2 8 C-1.24921605 14.49843211 -6.3565483 22.67827415 -13 26 C-11.47291037 22.56404834 -9.40072955 19.88087546 -7 17 C-8.65 18.32 -10.3 19.64 -12 21 C-12.66 20.67 -13.32 20.34 -14 20 C-13.49210937 19.47792969 -12.98421875 18.95585937 -12.4609375 18.41796875 C-7.16203209 12.75191072 -3.42750368 6.94588815 0 0 Z " fill="#F1F4F6" transform="translate(299,277)"/>
<path d="M0 0 C0.33 0 0.66 0 1 0 C1.6982948 10.21062174 0.92820954 18.81796749 -4 28 C-6.171875 29.390625 -6.171875 29.390625 -8 30 C-7.28707077 27.14828306 -6.57389022 24.29663265 -5.859375 21.4453125 C-5.30235368 19.2121634 -4.74997733 16.97784851 -4.203125 14.7421875 C-2.97828902 9.7553553 -1.74649219 4.8364399 0 0 Z " fill="#E6E9EB" transform="translate(305,256)"/>
<path d="M0 0 C1.25425781 0.01804687 2.50851563 0.03609375 3.80078125 0.0546875 C5.22970703 0.08949219 5.22970703 0.08949219 6.6875 0.125 C7.0175 0.785 7.3475 1.445 7.6875 2.125 C7.09582031 2.16238281 6.50414063 2.19976562 5.89453125 2.23828125 C0.94053842 2.65044052 -2.11168348 3.35860863 -6.3125 6.125 C-9.61245203 7.5451032 -12.95731523 8.84156039 -16.3125 10.125 C-16.3125 9.465 -16.3125 8.805 -16.3125 8.125 C-15.343125 7.67125 -14.37375 7.2175 -13.375 6.75 C-10.24170418 5.46713779 -10.24170418 5.46713779 -9.3125 3.125 C-10.9625 3.455 -12.6125 3.785 -14.3125 4.125 C-10.10830626 -0.07919374 -5.73618374 -0.10721839 0 0 Z " fill="#F6F7FA" transform="translate(72.3125,29.875)"/>
<path d="M0 0 C0.33 0 0.66 0 1 0 C2.93990414 12.85186494 2.27036896 24.27836433 -4 36 C-4.66 35.67 -5.32 35.34 -6 35 C-5.47599609 33.97519531 -5.47599609 33.97519531 -4.94140625 32.9296875 C-0.09412002 22.19150666 -0.07980596 11.62193919 0 0 Z " fill="#F3F4F6" transform="translate(306,248)"/>
<path d="M0 0 C2.46968633 2.46968633 3.06997969 4.57488587 4.1875 7.875 C4.55230469 8.92429687 4.91710937 9.97359375 5.29296875 11.0546875 C5.98462433 13.93594885 6.03230681 15.27786612 5 18 C4.01 17.67 3.02 17.34 2 17 C0.7017874 11.23918159 -0.25706972 5.91260345 0 0 Z " fill="#E7E8EA" transform="translate(25,257)"/>
<path d="M0 0 C4.95 0.99 4.95 0.99 10 2 C10 2.99 10 3.98 10 5 C11.65 5.33 13.3 5.66 15 6 C14.01 6.66 13.02 7.32 12 8 C9.08203125 7.1015625 9.08203125 7.1015625 5.8125 5.625 C4.72582031 5.14289062 3.63914062 4.66078125 2.51953125 4.1640625 C1.68808594 3.77992187 0.85664063 3.39578125 0 3 C0 2.01 0 1.02 0 0 Z " fill="#EBECF0" transform="translate(264,31)"/>
<path d="M0 0 C0.66 0.66 1.32 1.32 2 2 C1.67 2.99 1.34 3.98 1 5 C0.84929203 7.13661258 0.7514034 9.27712124 0.68359375 11.41796875 C0.64169922 12.67158203 0.59980469 13.92519531 0.55664062 15.21679688 C0.51732422 16.52712891 0.47800781 17.83746094 0.4375 19.1875 C0.39429008 20.52279978 0.350675 21.85808652 0.30664062 23.19335938 C0.20043498 26.46213297 0.09839003 29.73098333 0 33 C-0.33 33 -0.66 33 -1 33 C-1.19249739 28.78293756 -1.37118014 24.56558401 -1.53710938 20.34741211 C-1.59549105 18.91268244 -1.65763834 17.47810083 -1.72363281 16.04370117 C-1.8178682 13.98123128 -1.89852573 11.9186072 -1.9765625 9.85546875 C-2.02893066 8.61434326 -2.08129883 7.37321777 -2.13525391 6.09448242 C-2 3 -2 3 0 0 Z " fill="#E7E7E9" transform="translate(26,79)"/>
<path d="M0 0 C0.66 0.66 1.32 1.32 2 2 C0.95600254 3.34786992 -0.11102066 4.67792729 -1.1875 6 C-1.77917969 6.7425 -2.37085938 7.485 -2.98046875 8.25 C-5 10 -5 10 -7.73828125 10.25 C-8.48464844 10.1675 -9.23101562 10.085 -10 10 C-7.90814081 5.92637948 -6.00757642 4.15792576 -2 2 C-1.34 1.34 -0.68 0.68 0 0 Z " fill="#E5E8EC" transform="translate(291,293)"/>
<path d="M0 0 C3.96 0 7.92 0 12 0 C12.33 0.66 12.66 1.32 13 2 C12.11248047 2.09087891 12.11248047 2.09087891 11.20703125 2.18359375 C7.09021792 2.62012371 3.04455467 3.08671346 -1 4 C-1.33 3.34 -1.66 2.68 -2 2 C-1.34 2 -0.68 2 0 2 C0 1.34 0 0.68 0 0 Z " fill="#EDEDF1" transform="translate(67,30)"/>
<path d="M0 0 C-1 3 -1 3 -2.8125 4.1875 C-5 5 -5 5 -9 5 C-9.33 5.99 -9.66 6.98 -10 8 C-10.66 8 -11.32 8 -12 8 C-10.61482883 4.5659298 -9.34555636 3.29977978 -6 1.75 C-5.29875 1.41484375 -4.5975 1.0796875 -3.875 0.734375 C-2 0 -2 0 0 0 Z " fill="#E5E7EA" transform="translate(63,33)"/>
<path d="M0 0 C1.15518918 0.90484792 2.29885406 1.8244206 3.4375 2.75 C4.07558594 3.26046875 4.71367187 3.7709375 5.37109375 4.296875 C7.18810554 6.19667629 7.60423197 7.43586908 8 10 C7.01 10 6.02 10 5 10 C3.5 7.75 3.5 7.75 2 5 C1.01755155 3.65368175 0.02323436 2.31558703 -1 1 C-0.67 0.67 -0.34 0.34 0 0 Z " fill="#E4E6E8" transform="translate(285,42)"/>
<path d="M0 0 C0.99 0 1.98 0 3 0 C3 0.66 3 1.32 3 2 C4.65 2.33 6.3 2.66 8 3 C7.01 3.66 6.02 4.32 5 5 C1.3125 3.625 1.3125 3.625 -2 2 C-1.34 1.34 -0.68 0.68 0 0 Z " fill="#E4E6E8" transform="translate(271,34)"/>
<path d="M0 0 C0 3 0 3 0 3 Z M-2 3 C-1.06576355 6.01031744 -0.95550089 6.86650268 -2 10 C-2.99 10 -3.98 10 -5 10 C-3.125 4.125 -3.125 4.125 -2 3 Z " fill="#F0F2F4" transform="translate(35,52)"/>
</svg>
